<?xml version="1.0" encoding="utf-8"?>
<!-- Generator: Adobe Illustrator 22.1.0, SVG Export Plug-In . SVG Version: 6.00 Build 0)  -->
<svg version="1.1" xmlns="http://www.w3.org/2000/svg" xmlns:xlink="http://www.w3.org/1999/xlink" x="0px" y="0px"
	 viewBox="0 0 1024 1024" style="enable-background:new 0 0 1024 1024;" xml:space="preserve">
<style type="text/css">
	.st0{display:none;}
	.st1{fill:url(#SVGID_1_);}
	.st2{fill:#0088FE;}
</style>
<g id="icon">
	<g>
		<radialGradient id="SVGID_1_" cx="517.1152" cy="514.1651" r="427.6955" gradientUnits="userSpaceOnUse">
			<stop  offset="0.406" style="stop-color:#0088FE"/>
			<stop  offset="0.655" style="stop-color:#00C0A5"/>
		</radialGradient>
		<path class="st1" d="M927.2,556.6L559.5,924.3c-23.4,23.4-61.4,23.4-84.9,0L107,556.6c-23.4-23.4-23.4-61.4,0-84.9L474.7,104
			c23.4-23.4,61.4-23.4,84.9,0l367.7,367.7C950.7,495.2,950.7,533.2,927.2,556.6z"/>
		<path class="st2" d="M697.1,724.2h-360c-16.6,0-30-13.4-30-30v-360c0-16.6,13.4-30,30-30h360c16.6,0,30,13.4,30,30v360
			C727.1,710.7,713.7,724.2,697.1,724.2z"/>
	</g>
</g>
</svg>
